<svg xmlns="http://www.w3.org/2000/svg" width="100" height="100" viewBox="0 0 2732 2048" xmlnsXlink="http://www.w3.org/1999/xlink" stroke-linejoin="round"><style>.a{fill:rgb(159,193,234);}.b{fill:rgb(251,114,95);}.c{fill:white;}.d{fill:rgb(255,207,111);}.e{fill:rgb(59,107,191);}</style><path d="M1565 1359.6L2181.3 1359.6C2181.3 1359.6 2180.2 1333.6 2147.3 1314.4 2131.1 1305 2112.5 1300.4 2093.7 1301.3 2084.9 1301.7 2073 1301.6 2059.9 1300 2034.5 1296.8 2012 1281.7 1999.4 1259.3 1984.4 1232.8 1953.3 1195.8 1897.9 1198.9 1874.9 1200.1 1844.5 1210.4 1778.2 1285.2 1778.2 1285.2 1734.6 1328.8 1662.9 1314.9 1662.9 1314.9 1584.6 1308.1 1565 1359.6Z" class="a"/><path d="M724.1 1377.9L1284.3 1377.9C1284.3 1377.9 1261.4 1330.6 1223.3 1332.8 1189.9 1334.8 1165.9 1345.7 1136.4 1335.6 1109.9 1326.5 1052 1225.9 980.7 1233 956.4 1235.4 917 1240.4 886.5 1281.7 870 1304 852.7 1329.8 803.7 1317.5 758.7 1306.2 727.5 1327.9 724.1 1377.9Z" class="a"/><path d="M1568.8 1180L1624.5 1443.3C1624.5 1443.3 1586 1443.3 1587.7 1490.3L1695.4 1490.3 1684.1 1224.4C1684.1 1224.4 1635.7 1203 1626.3 1180L1568.8 1180Z" class="b"/><path d="M1604.7 1474.4L1604.7 1458C1604.7 1456.3 1606 1455 1607.7 1455 1609.3 1455 1610.7 1456.3 1610.7 1458L1610.7 1474.4 1604.7 1474.4ZM1630.2 1474.4L1630.2 1458C1630.2 1456.3 1631.5 1455 1633.2 1455 1634.8 1455 1636.2 1456.3 1636.2 1458L1636.2 1474.4 1630.2 1474.4Z" class="c"/><path d="M1160.2 564.6C1160.2 564.6 1186.8 515.6 1228.7 494.9 1231 493.7 1233.8 493.6 1236.3 494.5 1238.8 495.3 1240.8 497.2 1242 499.6 1243.9 503.8 1246 510 1247.5 519.4 1249.7 533 1251.8 571 1236.1 596.8 1236.1 596.8 1209.4 556.8 1160.2 564.6Z" class="b"/><path d="M1688.5 982.2L1696.8 996.3C1697.6 997.7 1699.5 998.2 1700.9 997.3 1702.3 996.5 1702.8 994.7 1702 993.2L1693.6 979.1C1692.8 977.7 1690.9 977.2 1689.5 978.1 1688.1 978.9 1687.6 980.8 1688.5 982.2Z" class="d"/><path d="M1707.3 991.4L1714.5 1002.7C1715.4 1004.1 1717.3 1004.5 1718.7 1003.6 1720.1 1002.8 1720.5 1000.9 1719.6 999.5L1712.4 988.2C1711.5 986.8 1709.6 986.4 1708.3 987.3 1706.9 988.1 1706.4 990 1707.3 991.4Z" class="d"/><path d="M1336.5 1465.9C1336.5 1465.9 1335.7 1488 1336.6 1498.2 1336.7 1499.9 1338.1 1501.1 1339.8 1501 1341.4 1500.8 1342.7 1499.4 1342.5 1497.7 1341.7 1487.8 1342.5 1466.2 1342.5 1466.2 1342.6 1464.5 1341.3 1463.1 1339.6 1463.1 1338 1463 1336.6 1464.3 1336.5 1465.9Z" class="d"/><path d="M1365.3 1468L1366.1 1496.9C1366.2 1498.6 1367.5 1499.9 1369.2 1499.8 1370.8 1499.8 1372.2 1498.4 1372.1 1496.7L1371.3 1467.8C1371.3 1466.2 1369.9 1464.8 1368.3 1464.9 1366.6 1464.9 1365.3 1466.3 1365.3 1468Z" class="d"/><path d="M1060.6 1446.1C1060.6 1446.1 1058.9 1465.9 1061.3 1475.3 1061.7 1476.9 1063.4 1477.9 1065 1477.5 1066.6 1477.1 1067.5 1475.4 1067.1 1473.8 1064.9 1465.1 1066.6 1446.6 1066.6 1446.6 1066.7 1445 1065.5 1443.5 1063.8 1443.4 1062.2 1443.2 1060.7 1444.5 1060.6 1446.1Z" class="d"/><path d="M1082 1446.2C1082 1446.2 1083 1465.5 1082.7 1472.7 1082.6 1474.4 1083.9 1475.8 1085.6 1475.8 1087.3 1475.9 1088.6 1474.6 1088.7 1472.9 1089 1465.6 1088 1445.9 1088 1445.9 1087.9 1444.3 1086.5 1443 1084.8 1443.1 1083.2 1443.2 1081.9 1444.6 1082 1446.2Z" class="d"/><path d="M1834.5 1467.8C1834.5 1467.8 1834.4 1483.2 1835.2 1496.5 1835.3 1498.2 1836.7 1499.4 1838.4 1499.3 1840 1499.2 1841.3 1497.8 1841.2 1496.2 1840.4 1483 1840.5 1467.8 1840.5 1467.8 1840.5 1466.2 1839.1 1464.8 1837.5 1464.8 1835.8 1464.8 1834.5 1466.1 1834.5 1467.8Z" class="d"/><path d="M1857.4 1468.1C1857.4 1468.1 1858.6 1479.4 1858.8 1496.6 1858.8 1498.3 1860.2 1499.6 1861.8 1499.6 1863.5 1499.6 1864.8 1498.2 1864.8 1496.5 1864.6 1479 1863.4 1467.5 1863.4 1467.5 1863.3 1465.8 1861.8 1464.6 1860.1 1464.8 1858.5 1464.9 1857.3 1466.4 1857.4 1468.1Z" class="d"/><path d="M1279.3 1196.4C1279.3 1196.4 1274.3 1179.3 1269.9 1164.4 1268.9 1161.2 1266 1158.9 1262.6 1158.7 1259.3 1158.6 1256.2 1160.5 1254.9 1163.6 1248.7 1178.5 1241.4 1195.8 1241.4 1195.8 1241.4 1195.8 1272.9 1199.4 1279.3 1196.4Z" class="d"/><path d="M1307.1 772.5C1307.1 772.5 1252.5 772 1206.3 770.6 1202.2 770.3 1198.4 773.2 1197.7 777.4 1196.9 781.5 1199.4 785.5 1203.4 786.7 1243.8 799.7 1299.5 815.1 1345.3 818.9L1314.4 787.8 1307.1 772.5Z" class="d"/><path d="M1386.8 1164L1389.5 1193.8 1404.2 1194.1 1401.4 1162.7C1401 1158.7 1397.5 1155.7 1393.5 1156 1389.4 1156.4 1386.5 1160 1386.8 1164Z" class="d"/><path d="M1163.8 1176.2C1163.8 1176.2 1136.2 1161.3 1110.2 1142.7 1107.8 1140.6 1104.2 1140.7 1101.9 1142.9 1099.6 1145.1 1099.3 1148.7 1101.3 1151.2 1121.5 1180.1 1146.6 1214.1 1158.6 1223.1L1163.8 1176.2Z" class="d"/><path d="M1629.8 1181C1629.8 1181 1612.2 1143.1 1597.6 1111.9 1596 1108.4 1592.1 1106.6 1588.3 1107.6 1584.6 1108.6 1582.1 1112.1 1582.4 1115.9 1584.9 1146.3 1587.7 1181 1587.7 1181L1629.8 1181Z" class="d"/><path d="M1039.1 690.4C1035.5 694.7 1031.8 697.9 1028.3 700.3 1024.7 702.8 1020 703.3 1015.9 701.6 1011.8 700 1008.9 696.3 1008 692 1004.8 675.9 999.3 647.6 995.5 628.5 992.9 615.2 998 601.5 1008.6 593.1 1021.9 582.5 1040.1 568.1 1048.7 561.3 1054.1 557 1060.3 553.8 1066.9 551.8 1079.1 548.2 1087.3 550.2 1092.6 553.8 1098.2 557.5 1100.8 563 1102 566.2L1177.3 560.2C1204.9 558.1 1230.6 574.3 1240.6 600.1 1242.3 604.5 1244 609 1245.7 613.3 1253.6 633.8 1273.2 647.3 1295.2 647.3 1317.5 647.3 1343.7 647.3 1357.1 647.3 1364.6 647.3 1371.1 652.2 1373.2 659.4 1379.6 680.9 1376.7 717.1 1373.4 742.3 1371 759.9 1357.2 773.8 1339.7 776.3L1310.5 780.5C1457.7 940.5 1661.4 898.6 1661.4 898.6 1663 898.3 1664.6 899.3 1664.9 900.9 1665.2 902.6 1664.2 904.1 1662.6 904.5 1662.6 904.5 1452 947.8 1302.2 780.3 1301.5 779.5 1301.3 778.4 1301.6 777.3 1302 776.3 1302.9 775.5 1304 775.4 1304 775.4 1322.2 772.8 1338.8 770.4 1353.7 768.3 1365.4 756.5 1367.4 741.5 1370.7 717.1 1373.6 681.9 1367.5 661.1 1366.1 656.5 1361.9 653.3 1357.1 653.3 1343.7 653.3 1317.5 653.3 1295.2 653.3 1270.8 653.3 1248.8 638.3 1240.1 615.5 1238.4 611.2 1236.7 606.7 1235 602.3 1226 578.9 1202.7 564.2 1177.7 566.2 1142.8 569 1100.1 572.3 1100.1 572.3 1098.5 572.4 1097.2 571.4 1096.9 569.9 1096.9 569.9 1095.5 562.9 1089.3 558.8 1085 555.9 1078.4 554.6 1068.6 557.6 1062.7 559.3 1057.3 562.2 1052.5 566 1043.8 572.8 1025.7 587.2 1012.3 597.8 1003.5 604.8 999.2 616.2 1001.4 627.3 1005.2 646.5 1010.7 674.8 1013.9 690.8 1014.4 693.2 1016 695.2 1018.2 696.1 1020.4 697 1023 696.7 1024.9 695.4 1029.8 692 1035.3 686.7 1039.9 678.4 1040.6 677.1 1042 676.6 1043.3 676.9 1044.7 677.3 1045.6 678.5 1045.5 679.9 1045.5 679.9 1037.6 873.2 1016.2 946 1016.2 946 1016.2 946 1016.2 946.1 1016.2 946.1 994.1 1011.9 1045.4 1153.3 1045.4 1153.4 1045.4 1153.5 1045.5 1153.7 1045.5 1153.7 1082.7 1315.9 1090.3 1421.3 1090.3 1422.1 1090 1423 1089.4 1423.6 1088.7 1424.3 1087.8 1424.6 1086.9 1424.5 1086.9 1424.5 1070 1422.5 1057.6 1432.7 1049.6 1439.4 1043.8 1451.2 1045.3 1471.7L1138.1 1471.7 1159.5 1178.5C1159.6 1177.5 1160.1 1176.6 1160.9 1176.1 1161.8 1175.6 1162.8 1175.5 1163.7 1175.9 1163.7 1175.9 1219.8 1200.3 1274.7 1190.5 1276.2 1190.2 1277.7 1191.2 1278.1 1192.6L1351.6 1442.8C1351.9 1443.8 1351.7 1444.7 1351.2 1445.5 1350.6 1446.3 1349.7 1446.7 1348.7 1446.7 1348.7 1446.7 1335.5 1446.6 1326.7 1457.2 1320.8 1464.4 1317.1 1476.1 1319.8 1495.5L1411.9 1495.5 1389.7 1193.7C1389.7 1192.9 1389.9 1192.1 1390.5 1191.5 1391 1190.9 1391.7 1190.5 1392.5 1190.5 1392.5 1190.5 1607.2 1176.8 1623.2 1175.8 1624.9 1175.6 1626.5 1176.5 1627.4 1177.9 1635.5 1190.8 1646.8 1208.8 1704.3 1232.9 1738.6 1247.4 1766.8 1273.4 1783.9 1306.5 1810 1356.7 1845.4 1426 1849.8 1440.2 1850.5 1442.4 1850.5 1443.9 1850.3 1444.5 1849.9 1445.6 1849.2 1446.2 1848.3 1446.5 1847.1 1447 1833.9 1447.6 1825.1 1458.8 1819.5 1466 1815.7 1477.4 1817.6 1495.5L1909.6 1495.5C1903.6 1457.8 1847.1 1119.7 1718.2 946.9 1717.2 945.6 1717.5 943.7 1718.8 942.7 1720.1 941.7 1722 942 1723 943.3 1860.3 1127.4 1916.1 1498.1 1916.1 1498.1 1916.2 1498.9 1915.9 1499.8 1915.4 1500.5 1914.8 1501.1 1914 1501.5 1913.1 1501.5L1815 1501.5C1813.5 1501.5 1812.2 1500.4 1812 1498.9 1809.1 1476.9 1813.8 1463.5 1820.4 1455.1 1828.3 1445.1 1839 1442.4 1843.8 1441.4 1843.4 1439.9 1842.6 1437.8 1841.6 1435.6 1832.1 1413 1801.7 1353.6 1778.6 1309.2 1762.1 1277.4 1735 1252.4 1702 1238.5 1643.3 1213.9 1631.2 1195.1 1622.8 1181.8L1395.9 1196.3 1418.1 1498.3C1418.2 1499.1 1417.9 1499.9 1417.3 1500.5 1416.8 1501.2 1416 1501.5 1415.1 1501.5L1317.2 1501.5C1315.7 1501.5 1314.5 1500.4 1314.3 1499 1310.4 1475.6 1315.2 1461.7 1322.1 1453.4 1329.5 1444.5 1339.4 1441.8 1344.9 1441L1273.1 1196.9C1226.1 1204.4 1178.8 1188.2 1165.2 1183L1143.9 1474.9C1143.8 1476.5 1142.5 1477.7 1140.9 1477.7L1042.5 1477.7C1041 1477.7 1039.7 1476.5 1039.6 1475 1037 1449.9 1044.3 1436 1053.8 1428.1 1064.3 1419.4 1077.7 1418.3 1084 1418.3 1076.1 1315.3 1041 1161 1039.7 1155.2 988.6 1014.2 1009.6 946.9 1010.5 944.2 1028.7 882.1 1037.1 731.7 1039.1 690.4Z" class="d"/><path d="M1606.8 805.7C1611.9 788.3 1624.5 751.1 1645.1 728.2 1654.7 717.5 1665.9 709.9 1678.8 708.4 1691.7 706.8 1706.3 711.2 1722.5 725 1745.9 744.9 1749.6 771 1742 798 1731 837.3 1695.6 878.5 1663.8 903.9 1662.5 904.9 1660.7 904.7 1659.6 903.4 1658.6 902.1 1658.8 900.2 1660.1 899.2 1691 874.6 1725.5 834.6 1736.3 796.4 1743.2 771.7 1740 747.8 1718.6 729.6 1704 717.2 1691.1 713 1679.5 714.3 1668 715.7 1658.1 722.7 1649.6 732.2 1622.9 761.9 1610.1 816.6 1610.1 816.6 1609.8 817.9 1608.7 818.8 1607.3 818.9 1606 819 1604.8 818.2 1604.3 816.9 1573.9 733.6 1600.6 680.1 1643.5 662.7 1686.4 645.4 1746.4 663.9 1783.4 725.8 1806.6 764.5 1801.5 807.9 1786.9 846 1765.3 902.4 1722.8 947.2 1722.8 947.2 1721.6 948.4 1719.7 948.4 1718.5 947.3 1717.3 946.2 1717.3 944.3 1718.4 943.1 1718.4 943.1 1760.1 899.2 1781.3 843.8 1795.3 807.4 1800.4 765.9 1778.3 728.9 1743.1 670.1 1686.5 651.8 1645.8 668.3 1606.7 684.1 1583 731.9 1606.8 805.7Z" class="d"/><path d="M1332.8 647.7C1332.8 647.7 1338.9 700.4 1376.1 696.1 1376.1 696.1 1376.3 680.6 1376.5 667.2 1376.5 662 1374.5 657.1 1370.9 653.4 1367.3 649.7 1362.4 647.7 1357.2 647.7 1345.5 647.7 1332.8 647.7 1332.8 647.7Z" class="e"/><path d="M1041.6 676.8C1041.6 676.8 1063.9 643.8 1078.3 616.9 1079.2 614.3 1081.9 612.8 1084.5 613.4 1087.2 614 1089 616.5 1088.7 619.2 1085.2 650.4 1074.2 698.7 1040.7 732.2L1041.6 676.8Z" class="d"/><circle cx="1326.2" cy="709.4" r="6.3" class="e"/><circle cx="1352.2" cy="719.2" r="5.6" class="e"/><circle cx="1336" cy="736.3" r="5.8" class="e"/><path d="M1181.4 640.7C1181.4 640.7 1163.6 616.1 1148.1 629.1 1137.8 637.7 1156.4 705.7 1184.5 712 1189.8 713.2 1224.3 698.5 1218 651.3 1217.3 646 1208.4 621.2 1181.4 640.7Z" class="e"/><path d="M1362.9 844.6L1009.6 844.5 997.8 1136.1 1381 1135 1362.9 844.6Z" class="a"/><g transform="matrix(1.01409 0 0 1.01409 -12.3536 -11.4504)"><g transform="matrix(1.0372 0 0 1.0372 -37.5584 -37.0568)"><path d="M1048.7 887.9C1048.6 887.1 1048.8 886.3 1049.3 885.6 1050.2 884.3 1051.3 884.3 1051.8 884.3 1053.1 884.2 1054.3 884.7 1054.9 886.4 1055 886.7 1055.1 887 1055.1 887.5 1055.1 887.7 1055 888.8 1055 889 1054.9 889.9 1054.9 890.8 1054.9 891.8 1054.9 894.8 1054.9 897.9 1054.9 901 1054.9 909.9 1054.5 919 1055 927.9 1055.1 929.7 1053.8 931.2 1052 931.3 1050.3 931.4 1048.8 930.1 1048.7 928.3 1048.1 919.2 1048.5 910 1048.5 901 1048.5 897.9 1048.5 894.8 1048.5 891.7 1048.5 890.7 1048.6 889.8 1048.6 888.8 1048.6 888.6 1048.6 888.2 1048.7 887.9ZM1054.3 889.6C1054 889.9 1053.7 890.1 1053.4 890.3 1053.7 890.2 1054 889.9 1054.3 889.6Z" class="c"/><path d="M1052.5 883.2C1053 883 1053.5 882.8 1053.7 882.7 1055.2 882.4 1056.6 882.2 1058.1 882.1 1061.2 881.8 1068.1 881 1072.3 882.4 1075.1 883.3 1077 885.1 1077.5 887.9 1078.1 891.2 1076.5 894.3 1073.6 896.8 1071.3 898.9 1068.1 900.6 1066 901.9 1067.9 902.3 1070.3 902.8 1072.6 903.7 1077.5 905.8 1081.9 909.6 1082 916.7 1082 923.1 1078.5 926.7 1073.9 928.7 1070 930.3 1065.3 930.7 1061.9 930.8 1060.1 930.9 1058.6 929.5 1058.6 927.7 1058.6 925.9 1059.9 924.5 1061.7 924.4 1064.5 924.4 1068.3 924.2 1071.4 922.8 1073.8 921.8 1075.6 920 1075.6 916.8 1075.5 912.8 1072.9 910.8 1070.1 909.6 1066.4 908 1062.3 907.6 1060.7 907.1 1060.4 907 1057.4 906.1 1056.8 905.6 1055.8 904.9 1055.6 904 1055.5 903.3 1055.4 902.7 1055.5 901.7 1056.4 900.7 1057 900 1060.7 897.8 1060.8 897.7 1062.5 896.4 1066.6 894.5 1069.4 892 1069.9 891.5 1070.4 891 1070.8 890.5 1071.1 890 1071.4 889.5 1071.3 889 1071.2 888.8 1071 888.7 1070.8 888.6 1070.3 888.4 1069.7 888.2 1069 888.1 1065.5 887.5 1060.8 888.2 1058.5 888.4 1057.5 888.5 1056.4 888.6 1055.4 888.9 1055.1 889 1054.2 889.5 1053.9 889.6 1053.3 889.8 1052.8 889.8 1052.3 889.7 1051 889.6 1050 889 1049.4 887.3 1048.9 885.7 1049.8 883.9 1051.5 883.3 1051.9 883.2 1052.2 883.2 1052.5 883.2ZM1055.4 885.1L1055.5 885.3 1055.5 885.2 1055.4 885.1ZM1055.3 885L1055.4 885.1 1055.4 885.1 1055.3 885ZM1055.3 884.8L1055.3 885 1055.3 884.9 1055.3 884.8ZM1055.2 884.7L1055.3 884.8 1055.2 884.8 1055.2 884.7Z" class="c"/><path d="M1092.4 929.3C1092.5 930 1092.5 930.7 1092.1 931.4 1091.3 932.9 1089.4 933.5 1087.9 932.8 1087.5 932.7 1086.3 932 1086 930.2 1085.8 928.8 1085.8 922 1086.1 919.4 1087.2 909.3 1088.6 897.1 1096.2 889.6 1098.3 887.4 1101.5 886.2 1104.7 886.3 1108 886.3 1111.2 887.6 1113.2 890.4 1115.7 894 1116.3 898.6 1116.2 902.9 1116.2 906.9 1115.8 910.7 1115.3 914.7 1114.5 921 1114.3 927.5 1113.2 933.8 1113 935.5 1111.4 936.7 1109.6 936.4 1107.9 936.2 1106.7 934.6 1106.9 932.9 1107.9 926.7 1108.2 920.3 1109 914 1109.4 910.3 1109.8 906.6 1109.8 902.8 1109.9 899.8 1109.7 896.4 1107.9 893.8 1107.2 892.8 1105.9 892.4 1104.6 892.4 1103.2 892.4 1101.7 892.9 1100.8 893.8 1094.1 900.4 1093.4 911.3 1092.4 920 1092.2 922.1 1092.3 928.4 1092.4 929.3Z" class="c"/><path d="M1092.6 908.7C1093 908.8 1093.9 909 1094 909 1095.3 909.2 1096.7 909.3 1098 909.4 1102.2 910 1106.4 910.2 1110.6 910.4 1112.4 910.5 1113.7 912 1113.6 913.7 1113.6 915.5 1112.1 916.8 1110.3 916.7 1105.9 916.5 1101.6 916.3 1097.2 915.8 1095.9 915.6 1094.5 915.5 1093.2 915.3 1092.8 915.3 1090.8 914.9 1090.5 914.8 1088.6 914.1 1088.5 912.5 1088.4 912 1088.4 911 1088.6 909.6 1090.3 908.9 1091.1 908.5 1091.9 908.5 1092.6 908.7ZM1094.6 912.9C1094.3 913.6 1093.8 914.2 1093.1 914.6 1094 914.1 1094.4 913.5 1094.6 912.9ZM1094.6 910.7C1094.8 911.2 1094.9 911.7 1094.8 912.3 1094.9 911.7 1094.8 911.2 1094.6 910.7Z" class="c"/><path d="M1133.7 888.3C1133.7 888.8 1133.7 890.4 1133.7 890.8 1133.5 894 1133.2 897.1 1132.9 900.3 1131.9 911.1 1130.6 922 1129.7 932.8 1129.5 934.6 1127.9 935.9 1126.2 935.7 1124.4 935.6 1123.1 934 1123.3 932.3 1124.3 921.4 1125.6 910.6 1126.5 899.7 1126.8 896.6 1127.1 893.5 1127.3 890.4 1127.4 889.8 1127.2 888 1127.4 887 1127.6 886.2 1127.9 885.5 1128.3 885.1 1129.4 883.7 1131.4 883.5 1132.7 884.6 1133.9 885.5 1134.2 887 1133.7 888.3Z" class="c"/><path d="M1135.6 910C1136.2 911.6 1138.6 915 1139.6 917 1142.6 922.7 1145.5 928.4 1148.1 934.3 1148.8 935.9 1150.7 936.6 1152.3 935.9 1153.9 935.2 1154.6 933.3 1153.9 931.7 1151.2 925.7 1148.3 919.8 1145.2 914 1144.3 912.3 1142.2 909.3 1141.6 907.8 1141 906.2 1139.2 905.3 1137.6 905.9 1135.9 906.5 1135 908.3 1135.6 910Z" class="c"/><path d="M1130.6 889.4C1133.2 890.4 1136.4 890.6 1139.4 891.1 1141.6 891.4 1143.8 891.9 1145.4 893.5 1146.8 894.8 1145.9 896.7 1144.8 898 1141.1 901.9 1135 905 1130 907 1128.4 907.7 1127.6 909.6 1128.3 911.2 1128.9 912.8 1130.8 913.6 1132.4 912.9 1138.2 910.5 1145.1 906.9 1149.4 902.3 1152.9 898.6 1153.8 892.8 1149.9 888.9 1147.3 886.4 1144 885.4 1140.5 884.8 1137.8 884.4 1135 884.2 1132.7 883.4 1131.1 882.8 1129.2 883.7 1128.6 885.3 1128.1 887 1128.9 888.8 1130.6 889.4Z" class="c"/><path d="M1164.7 888C1165 898.8 1163.7 922.9 1164.7 933.7 1164.9 935.5 1166.4 936.8 1168.2 936.6 1169.9 936.4 1171.2 934.9 1171 933.1 1170.1 922.4 1171.3 898.6 1171.1 887.8 1171 886.1 1169.5 884.7 1167.8 884.7 1166 884.8 1164.6 886.2 1164.7 888Z" class="c"/><path d="M1189.1 887.5C1187.7 889.7 1186.2 892 1184.6 894.1 1179.7 900.4 1174 906.7 1167.7 911.6 1166.3 912.7 1166 914.7 1167.1 916.1 1168.2 917.5 1170.2 917.7 1171.6 916.7 1178.3 911.4 1184.4 904.7 1189.6 898 1191.4 895.7 1193 893.3 1194.5 890.8 1195.4 889.3 1194.9 887.3 1193.4 886.4 1191.9 885.5 1190 886 1189.1 887.5Z" class="c"/><path d="M1173.6 910.7C1176 914 1177.4 918.8 1179 922.5 1180.9 926.8 1183.1 931 1184.6 935.4 1185.2 937.1 1187 938 1188.6 937.5 1190.3 936.9 1191.2 935.1 1190.7 933.5 1189.1 928.8 1186.8 924.5 1184.9 920 1183.1 915.8 1181.4 910.6 1178.8 907 1177.7 905.6 1175.7 905.2 1174.3 906.3 1172.9 907.3 1172.6 909.3 1173.6 910.7Z" class="c"/><path d="M1204.8 889.8C1205.3 893.4 1204.7 894.1 1204.8 897.7 1205.1 910.3 1204.9 923 1205.3 935.6 1205.4 937.3 1206.8 938.7 1208.6 938.7 1210.4 938.6 1211.7 937.1 1211.7 935.4 1211.3 922.8 1211.5 910.1 1211.2 897.5 1211.1 893.7 1211.6 892.9 1211.2 889.1 1211 887.4 1209.4 886.1 1207.6 886.3 1205.9 886.5 1204.6 888.1 1204.8 889.8Z" class="c"/><path d="M1222.7 891.4C1222.8 892.7 1222.6 900.5 1222.7 904.1 1223.1 914.8 1222.8 925.6 1222.9 936.3 1222.9 938.1 1224.3 939.5 1226.1 939.5 1227.8 939.5 1229.3 938 1229.3 936.3 1229.2 925.5 1229.5 914.6 1229.1 903.8 1228.9 900.2 1229.2 892.1 1229.1 890.9 1228.9 889.1 1227.4 887.8 1225.6 888 1223.9 888.1 1222.6 889.7 1222.7 891.4Z" class="c"/><path d="M1247.1 927.1C1246.8 916.7 1245.4 894.7 1245.4 892 1245.4 890.2 1246.8 888.6 1248.7 888.6 1250.5 888.6 1252 890.1 1252 891.9 1252.1 894.6 1253.5 917 1253.7 927.1 1253.8 930.2 1254 933.3 1253.9 936.3 1253.9 936.8 1253.9 939.2 1253.4 940.2 1252.7 941.6 1251.6 942.3 1250.4 942.4 1249.6 942.5 1248.6 942.3 1247.7 941.6 1247 941.1 1246.2 939.7 1245.9 939.3 1244.7 937.3 1243.6 935.2 1242.6 933.1 1238.6 924.6 1235 917 1231 908.5 1229.1 904.4 1225.4 897.5 1223.4 893.4 1222.6 891.7 1223.3 889.8 1225 888.9 1226.6 888.1 1228.6 888.8 1229.4 890.5 1231.4 894.6 1235.1 901.5 1237 905.6L1247.1 927.1Z" class="c"/><path d="M1289.5 926C1289.5 926.5 1289.4 927.1 1289.3 927.6 1288.3 932.3 1284.9 936.8 1281.3 938.7 1274.5 942.3 1267.5 939.5 1263.3 933.5 1258 926 1257.4 914.8 1259 906.1 1259.7 902.5 1260.3 899.2 1263.3 895.6 1269.9 887.3 1277.9 888.9 1280.7 890.6 1282.7 891.8 1283.1 893.5 1283 894.6 1282.8 896.4 1281.2 897.6 1279.4 897.4 1278.5 897.3 1277.6 896.7 1277.1 896 1276 895.9 1271.4 895.7 1268.2 899.6 1266.1 902.2 1265.8 904.6 1265.3 907.3 1263.9 914.5 1264.2 923.7 1268.5 929.9 1270.8 933.2 1274.6 935 1278.3 933.1 1280.1 932.2 1281.6 930.3 1282.5 928.1 1279 928.1 1275.9 926.2 1275 922.5 1274.5 920.3 1275.1 918.6 1275.9 917.5 1276.8 916.3 1278.2 915.5 1279.9 915.2 1282.4 914.9 1285.6 915.9 1287.2 917.9 1287.5 918.3 1287.8 918.8 1288.1 919.2 1289.1 918.3 1290 917.3 1290.7 916.3 1291.7 914.9 1293.7 914.5 1295.1 915.5 1296.6 916.5 1296.9 918.5 1295.9 919.9 1294.3 922.3 1292.1 924.5 1289.5 926Z" class="c"/></g><path d="M1122.1 966.6C1122.1 966.9 1122.1 967.3 1122.1 967.6 1122.1 969.8 1122.6 972.4 1122.6 973.6 1122.5 982.2 1122.8 991.1 1124.4 999.6 1124.7 1001.4 1123.6 1003.2 1121.8 1003.5 1120 1003.9 1118.2 1002.7 1117.9 1000.9 1116.2 992 1115.9 982.6 1116 973.5 1116 972.2 1115.4 968.9 1115.5 966.5 1115.5 964.6 1116.1 963.1 1116.9 962.2 1117.4 961.6 1118.2 961 1119.1 960.6 1120.3 960.1 1121.9 959.7 1122.9 959.5 1127.1 958.2 1131.4 957.3 1135.7 956.6 1137.6 956.3 1139.4 956 1141.3 955.8 1141.9 955.7 1142.5 955.7 1143.1 955.6 1143.5 955.5 1144.5 955.4 1144.6 955.4 1146.7 955.5 1147.4 956.9 1147.6 957.6 1147.8 958 1148.6 960.4 1145.9 961.7 1145.5 961.9 1145.1 962 1144.7 962 1144.4 962.1 1144.1 962.1 1144 962.2 1143.3 962.2 1142.7 962.3 1142.1 962.4 1140.3 962.6 1138.6 962.9 1136.8 963.1 1132.7 963.8 1128.7 964.6 1124.8 965.8L1122.1 966.6ZM1142.7 955.9L1142.7 955.9 1142.7 955.9 1142.7 955.9ZM1142.9 955.8L1142.8 955.9 1142.9 955.8 1142.9 955.8Z" class="c"/><path d="M1120.5 983.9C1120 984 1119.5 983.9 1119 983.8 1117.2 983.2 1116.3 981.3 1116.9 979.6 1116.9 979.5 1117.4 977.6 1119.7 977.3 1120.1 977.3 1122.2 977.1 1122.4 977.1 1125.4 976.7 1128.4 976.1 1131.5 975.8 1133.3 975.6 1134.9 976.9 1135.1 978.7 1135.3 980.6 1134 982.2 1132.2 982.4 1129.2 982.7 1126.2 983.3 1123.2 983.7 1123.1 983.7 1120.8 983.9 1120.5 983.9Z" class="c"/><path d="M1177.9 965.9C1180 964.3 1181.7 962.3 1183 960 1183.8 958.4 1185.9 957.8 1187.5 958.7 1189.1 959.6 1189.6 961.6 1188.8 963.2 1186.7 966.9 1183.7 970.1 1180.1 972.5 1180.2 972.9 1180.2 973.2 1180.3 973.6 1181 982.4 1178.7 990.7 1173.2 997.8 1169.7 1002.5 1164.2 1006.6 1157.9 1004 1155.9 1003.3 1154.4 1001.9 1153.2 1000.1 1151.7 997.9 1150.8 995.2 1150.3 993 1147.9 983.3 1150.4 970 1158.3 963.4 1161.9 960.5 1166.6 959 1171.1 960.2 1171.8 960.4 1173.5 960.9 1174.5 961.5 1175.5 962.1 1176.1 962.9 1176.3 963.8 1177 964.4 1177.5 965.1 1177.9 965.9ZM1159.1 972.7C1155.9 978.1 1155.3 985.6 1156.7 991.4 1157 992.7 1157.5 994.3 1158.2 995.7 1158.8 996.6 1159.4 997.5 1160.3 997.9 1162 998.6 1163.5 998 1164.8 997 1166 996.1 1167.1 994.9 1168 993.8 1172.1 988.5 1174 982.3 1173.8 975.7 1172.9 975.9 1172 976.2 1171.2 976.4 1169 976.9 1166.4 977.1 1164.1 976.5 1162.2 976 1160.4 974.9 1159.3 973 1159.2 972.9 1159.2 972.8 1159.1 972.7ZM1172.3 969.2C1171.9 968.4 1171.2 967.8 1170.4 967.5 1170.1 967.3 1169.7 967.4 1169.3 967.4 1168.2 967.5 1167 967.8 1166 968.4 1165.6 968.6 1165.3 968.8 1165 969.1 1164.9 969.2 1164.8 969.4 1164.9 969.5 1165.2 970 1165.8 970.1 1166.3 970.2 1167.5 970.4 1168.7 970.2 1169.7 969.9 1170.6 969.7 1171.5 969.5 1172.3 969.2Z" class="c"/><path d="M1193.2 1000.8C1193.2 999.7 1193.3 998.6 1193.3 997.5 1193.5 994 1193.6 990.4 1193.7 986.9 1193.8 980.2 1194 973.5 1194.3 966.9 1194.4 965.6 1194.2 963 1194.6 961.1 1195 959.5 1195.9 958.3 1197 957.5 1198.1 956.8 1199.5 956.4 1200.9 956.3 1202.3 956.3 1203.8 956.5 1205.1 956.6 1208.4 956.9 1214.3 957.8 1218.4 960 1222.1 962 1224.4 965 1224 969.3 1223.6 973.7 1220.7 977.2 1216.6 979.6 1211.6 982.6 1204.7 984.2 1200.3 985.1L1200.3 987C1200.2 990.6 1200.1 994.2 1199.9 997.8 1199.9 998.9 1199.8 1000 1199.8 1001.2 1199.8 1001.4 1199.7 1001.7 1199.7 1002.1L1199.7 1002.1C1200.1 1003.9 1199 1005.7 1197.2 1006.1 1196.1 1006.3 1195.2 1006.1 1194.6 1005.7 1194 1005.4 1193.6 1004.9 1193.2 1004.2 1193 1003.8 1192.9 1003.2 1192.9 1002.5 1192.9 1002.1 1193.1 1001.1 1193.2 1000.8ZM1197.3 999.7C1196.9 999.5 1196.4 999.5 1195.9 999.6 1196.4 999.5 1196.9 999.5 1197.3 999.7ZM1200.5 978.3C1204.3 977.5 1209.4 976.2 1213.2 974 1215.4 972.6 1217.2 971 1217.5 968.6 1217.6 967.2 1216.5 966.4 1215.3 965.8 1212 964 1207.1 963.5 1204.5 963.2 1203.7 963.2 1202.9 963 1202.1 963 1201.7 962.9 1201.4 962.9 1201 962.9 1201 963.3 1200.9 963.9 1200.9 964.3 1200.9 965.4 1200.9 966.5 1200.9 967.2 1200.8 970.9 1200.6 974.6 1200.5 978.3Z" class="c"/><path d="M1207.2 981.7C1206.7 981.1 1206.4 980.2 1206.4 979.3 1206.6 977.7 1207.4 977.1 1207.9 976.8 1208.9 976.1 1210.2 975.8 1211.6 976.7 1211.8 976.9 1212.1 977.1 1212.4 977.5 1212.6 977.7 1213 978.6 1213.1 978.8 1213.5 979.4 1213.8 979.9 1214.1 980.5 1215.2 982.3 1216.3 984 1217.4 985.8 1220.6 990.8 1223.4 996.7 1227.3 1001.2 1228.4 1002.6 1228.2 1004.7 1226.8 1005.9 1225.4 1007.1 1223.4 1006.9 1222.2 1005.5 1218.2 1000.7 1215.2 994.6 1211.8 989.3 1210.7 987.5 1209.6 985.7 1208.5 983.9 1208.1 983.3 1207.8 982.7 1207.4 982.1 1207.4 982 1207.3 981.9 1207.2 981.7ZM1212.7 981.1C1212.8 980.8 1213 980.4 1213 979.8 1213 980.3 1212.9 980.7 1212.7 981.1Z" class="c"/><g transform="matrix(1 0 0 1 0.550138 4.39491)"><path d="M1079 1032.7C1079.3 1029.6 1077.5 1026.5 1074.6 1024.4 1070.8 1021.6 1065.2 1020.6 1062 1022 1055 1024.9 1051.2 1033.5 1049.9 1040.4 1047.9 1050.5 1049 1062.7 1056 1070.9 1064.3 1080.5 1079.5 1079 1084.4 1067 1085.1 1065.3 1084.3 1063.3 1082.6 1062.6 1080.9 1062 1079 1062.8 1078.3 1064.5 1075.3 1071.8 1066 1072.4 1061 1066.6 1055.3 1059.9 1054.7 1049.9 1056.3 1041.7 1057.3 1036.7 1059.6 1030.2 1064.6 1028 1065.1 1027.8 1065.7 1027.9 1066.4 1028 1067.8 1028.2 1069.5 1028.8 1070.7 1029.7 1071.6 1030.4 1072.5 1031.1 1072.4 1032 1072.2 1033.9 1073.5 1035.5 1075.3 1035.7 1077.1 1035.9 1078.8 1034.5 1079 1032.7Z" class="c"/><path d="M1092.6 1026C1092.5 1025.1 1092.6 1024.3 1093.2 1023.5 1094.2 1022 1096.3 1021.7 1097.8 1022.7 1098.2 1023 1098.9 1023.6 1099.2 1025 1099.3 1025.5 1099.1 1027.8 1099.1 1028.2 1099.1 1031.2 1099.1 1034.2 1099.1 1037.2 1099.3 1048.8 1100.1 1060.3 1099.9 1071.9 1099.8 1073.7 1098.3 1075.1 1096.5 1075.1 1094.7 1075.1 1093.2 1073.6 1093.2 1071.8 1093.4 1060.3 1092.7 1048.8 1092.5 1037.3 1092.5 1034.3 1092.4 1031.2 1092.5 1028.1 1092.5 1027.9 1092.6 1026.4 1092.6 1026Z" class="c"/><path d="M1120.1 1025.9C1120.2 1026.4 1120.2 1027.8 1120.2 1028 1120.3 1031.2 1120.4 1034.4 1120.5 1037.6 1120.8 1049 1121.9 1060.9 1121.1 1072.4 1121 1074.2 1119.4 1075.6 1117.6 1075.4 1115.8 1075.3 1114.4 1073.7 1114.5 1071.9 1115.3 1060.7 1114.2 1049 1113.9 1037.8 1113.7 1034.5 1113.6 1031.3 1113.6 1028.1 1113.6 1027.6 1113.4 1025.7 1113.6 1024.7 1113.8 1023.6 1114.3 1022.9 1114.7 1022.4 1116 1021.2 1118.1 1021.2 1119.4 1022.5 1120.3 1023.4 1120.5 1024.8 1120.1 1025.9Z" class="c"/><path d="M1096.4 1052.4C1098.9 1053.3 1102 1053.6 1105.2 1053.6 1109.2 1053.6 1113.6 1053.1 1117.1 1053.3 1118.9 1053.5 1120.5 1052.1 1120.6 1050.3 1120.7 1048.4 1119.3 1046.9 1117.5 1046.7 1114.4 1046.5 1110.8 1046.8 1107.1 1047 1104.1 1047.1 1101.1 1047.1 1098.7 1046.2 1097 1045.5 1095.1 1046.4 1094.4 1048.1 1093.8 1049.8 1094.7 1051.7 1096.4 1052.4Z" class="c"/><path d="M1140.8 1072.8C1140.8 1073.2 1140.8 1073.7 1140.7 1074.1 1140.2 1076.2 1138.6 1076.5 1138.1 1076.6 1137.6 1076.7 1134.9 1076.9 1134.2 1074 1134.2 1073.8 1134.1 1072.3 1134.1 1071.9 1134 1070.8 1134 1069.8 1134 1068.7 1133.9 1065.3 1133.8 1061.9 1133.9 1058.5 1134.1 1049.8 1134.9 1040.2 1138.2 1032.2 1140.1 1027.7 1143.7 1023.1 1149 1022.6 1152.5 1022.2 1155.2 1023.6 1157.2 1026 1159.6 1028.7 1160.9 1032.9 1161.5 1036.1 1162.3 1041 1162.4 1046 1162.8 1050.9 1163.4 1058.8 1164.2 1066.8 1163.9 1074.7 1163.9 1076.5 1162.4 1077.9 1160.5 1077.9 1158.7 1077.8 1157.3 1076.3 1157.3 1074.5 1157.6 1066.8 1156.8 1059.1 1156.2 1051.4 1155.8 1046.7 1155.8 1041.9 1155 1037.2 1154.6 1035.4 1154 1033 1152.8 1031.2 1152.1 1030 1151.1 1029 1149.6 1029.1 1146.8 1029.4 1145.3 1032.3 1144.4 1034.7 1141.4 1042 1140.7 1050.8 1140.5 1058.6 1140.4 1061.9 1140.5 1065.2 1140.6 1068.5 1140.6 1069.5 1140.7 1070.6 1140.7 1071.7L1140.8 1072.8ZM1135.3 1070.9C1135 1071.1 1134.5 1071.6 1134.3 1072.5 1134.5 1071.8 1134.8 1071.3 1135.3 1070.9ZM1137.9 1070.1C1138 1070.1 1138.1 1070.1 1138.2 1070.1 1138.9 1070.3 1139.5 1070.7 1140 1071.2 1139.4 1070.4 1138.6 1070.1 1137.9 1070.1ZM1135.9 1070.4L1135.9 1070.5 1135.9 1070.4 1135.9 1070.4ZM1136 1070.4L1136 1070.4 1136.1 1070.3 1136 1070.4ZM1136.6 1070.2C1136.4 1070.2 1136.3 1070.3 1136.1 1070.3L1136.3 1070.3C1136.3 1070.3 1136.4 1070.2 1136.4 1070.2L1136.6 1070.2Z" class="c"/><path d="M1138.2 1050.5L1138.8 1050.5C1140.1 1050.5 1141.4 1050.5 1142.8 1050.6 1148 1050.7 1153.2 1050.7 1158.3 1050.9 1160.2 1051 1161.6 1052.5 1161.5 1054.4 1161.4 1056.2 1159.9 1057.6 1158.1 1057.5 1152.9 1057.3 1147.8 1057.3 1142.6 1057.2 1141.3 1057.1 1140 1057.1 1138.7 1057.1 1138.7 1057.1 1138.8 1057.1 1138.8 1057.1 1138.8 1057.1 1137 1057.1 1136.6 1056.9 1135.5 1056.5 1134.9 1055.8 1134.7 1055.2 1133.9 1053.6 1134.5 1051.6 1136.2 1050.8 1136.8 1050.5 1137.6 1050.4 1138.2 1050.5Z" class="c"/><path d="M1173 1024.1C1172.6 1029.4 1172.8 1034.8 1172.8 1040 1172.6 1051.5 1172.7 1062.9 1172.4 1074.4 1172.4 1076.2 1173.8 1077.8 1175.7 1077.8 1177.5 1077.9 1179 1076.4 1179 1074.6 1179.3 1063.1 1179.3 1051.6 1179.4 1040.1 1179.4 1035 1179.2 1029.8 1179.6 1024.7 1179.8 1022.9 1178.5 1021.3 1176.6 1021.1 1174.8 1021 1173.2 1022.3 1173 1024.1Z" class="c"/><path d="M1203.8 1025.5C1203.8 1025.6 1203.8 1025.8 1203.8 1025.8 1203.8 1026.2 1203.8 1026.6 1203.8 1027 1203.8 1028.3 1203.8 1029.5 1203.7 1030.8 1203.7 1034.5 1203.7 1038.1 1203.6 1041.8 1203.4 1052.9 1202.5 1064 1202.3 1075.1 1202.3 1076.9 1200.8 1078.3 1199 1078.3 1197.1 1078.3 1195.7 1076.8 1195.7 1075 1195.9 1063.9 1196.8 1052.8 1197 1041.7 1197.1 1038 1197.1 1034.4 1197.1 1030.8 1197.1 1029.5 1197.1 1028.2 1197.2 1026.9 1197.2 1026.5 1197.2 1026 1197.2 1025.6 1197.2 1025.6 1197.2 1025.7 1197.2 1025.7 1197.2 1025.7 1197.3 1024.2 1197.4 1024 1197.9 1022.4 1199.1 1022 1199.9 1021.8 1200.6 1021.7 1201.4 1021.7 1202.3 1022.3 1202.5 1022.4 1203.2 1022.8 1203.6 1023.9 1203.8 1024.4 1203.9 1025 1203.8 1025.5ZM1198.9 1028C1199.4 1028.3 1199.9 1028.4 1200.4 1028.4 1199.9 1028.4 1199.4 1028.2 1198.9 1028ZM1197.6 1026.6C1197.7 1026.8 1197.8 1027 1197.9 1027.1 1197.8 1027 1197.7 1026.8 1197.6 1026.6ZM1197.6 1026.6C1197.5 1026.5 1197.5 1026.4 1197.4 1026.3 1197.5 1026.4 1197.5 1026.5 1197.6 1026.6Z" class="c"/><path d="M1173.5 1025.8C1173.4 1025.6 1173.3 1025.4 1173.3 1025.3 1172.5 1023.6 1173.3 1021.6 1175 1020.9 1175.4 1020.8 1177.8 1020 1179.2 1022.4 1179.5 1022.8 1180.6 1025.3 1180.7 1025.5 1182.2 1028.9 1183.6 1032.3 1184.9 1035.8 1189.9 1048.2 1194.3 1061.5 1201.1 1073.2 1202 1074.8 1201.4 1076.9 1199.8 1077.8 1198.2 1078.7 1196.2 1078.1 1195.3 1076.5 1188.5 1064.5 1183.9 1051 1178.8 1038.2 1177.5 1034.9 1176.1 1031.5 1174.6 1028.2L1173.5 1025.8Z" class="c"/><path d="M1240.4 1060.1C1240.4 1060.6 1240.4 1061 1240.3 1061.5 1239.7 1066.1 1237 1070.7 1233.3 1073.5 1229.2 1076.6 1224 1077.7 1218.9 1075 1216.7 1073.8 1214.8 1072.1 1213.3 1070.1 1210.7 1066.6 1209.8 1062.4 1209.4 1058.2 1208.6 1049.4 1210.3 1039 1216.2 1032.1 1219.6 1028.1 1224.6 1026.4 1229.7 1026.4 1231.2 1026.4 1232.8 1026.5 1234.3 1026.9 1235 1027 1235.6 1027.3 1236.3 1027.5 1236.2 1027.5 1236 1027.4 1236 1027.4 1236 1027.4 1237.3 1028 1237.6 1028.2 1237.9 1028.5 1238.1 1028.7 1238.3 1029 1238.8 1029.8 1239 1030.6 1238.8 1031.4 1238.7 1032.1 1238.4 1033 1237.3 1033.7 1236.2 1034.4 1234.7 1034.3 1233.7 1033.6L1233.5 1033.6C1233.3 1033.5 1233.1 1033.4 1232.8 1033.3 1231.8 1033.1 1230.7 1033 1229.6 1033 1226.4 1033 1223.3 1033.9 1221.2 1036.4 1216.5 1042 1215.3 1050.5 1216 1057.6 1216.3 1060.6 1216.8 1063.6 1218.6 1066.1 1219.5 1067.3 1220.7 1068.4 1222 1069.1 1224.6 1070.5 1227.2 1069.8 1229.3 1068.3 1230.9 1067 1232.2 1065.2 1233 1063.2 1232.6 1063.3 1232.1 1063.4 1231.7 1063.4 1228 1063.6 1223.9 1061.8 1222.6 1058 1220.2 1051.1 1227.8 1044.2 1234.3 1047.8 1236.3 1048.9 1237.9 1050.7 1238.9 1052.8 1239.3 1052.4 1239.6 1051.9 1240 1051.5 1241.1 1050 1243.2 1049.8 1244.6 1050.9 1246.1 1052 1246.3 1054.1 1245.2 1055.5 1243.9 1057.2 1242.3 1058.8 1240.4 1060.1ZM1233.4 1056.4C1233 1055.2 1232.3 1054.2 1231.2 1053.6 1230.6 1053.2 1229.9 1053.5 1229.4 1053.9 1228.9 1054.4 1228.6 1055.1 1228.8 1055.9 1229 1056.3 1229.4 1056.5 1229.8 1056.6 1230.3 1056.8 1230.8 1056.8 1231.4 1056.8 1232 1056.7 1232.7 1056.6 1233.4 1056.4ZM1232.9 1028.9C1233.1 1028.6 1233.4 1028.3 1233.7 1028.1 1233.4 1028.3 1233.1 1028.6 1232.9 1028.9Z" class="c"/><path d="M1274.3 1024.1C1275.8 1023.5 1277.5 1023.9 1278.4 1025.2 1279.4 1026.8 1279 1028.8 1277.5 1029.8 1276.9 1030.2 1276 1030.6 1274.8 1030.7 1273.6 1030.8 1272.1 1030.6 1271.4 1030.7 1267.5 1030.9 1263.6 1031.2 1259.7 1031.6 1259.4 1031.7 1258.4 1031.8 1257.6 1031.8 1257.3 1033.7 1257 1035.6 1256.9 1037.6 1256.2 1045.6 1256.4 1053.7 1256.8 1061.7 1257 1064 1257 1066.2 1257.3 1068.5L1257.3 1068.7C1258.1 1068.8 1259.3 1068.9 1259.8 1068.9 1264 1069.2 1268.3 1069.3 1272.5 1069.2 1274.4 1069.1 1275.9 1070.6 1275.9 1072.4 1275.9 1074.3 1274.5 1075.8 1272.7 1075.8 1268.3 1075.9 1263.8 1075.8 1259.4 1075.5 1258.4 1075.5 1256.6 1075.5 1255.2 1075.2 1254.1 1074.9 1253.1 1074.4 1252.5 1073.9 1251.9 1073.4 1251.4 1072.6 1251.1 1071.7 1250.9 1070.9 1250.8 1069.9 1250.7 1069.3 1250.4 1066.9 1250.4 1064.5 1250.2 1062.1 1249.8 1053.7 1249.6 1045.3 1250.3 1037 1250.4 1034.9 1250.7 1032.8 1251.1 1030.7 1251.1 1030.3 1251.2 1029.4 1251.4 1028.8 1251.6 1027.9 1252 1027.2 1252.5 1026.7 1253.1 1026.1 1254.1 1025.6 1255.3 1025.4 1256.6 1025.1 1258.2 1025.2 1259 1025.1 1262.9 1024.6 1267 1024.4 1271 1024.1 1271.6 1024 1273.9 1024.1 1274.3 1024.1Z" class="c"/><path d="M1256.4 1051.3C1256.2 1051.3 1254.7 1051.4 1254.2 1051.3 1253 1051.1 1252.3 1050.5 1251.9 1050.1 1250.8 1048.6 1251 1046.6 1252.4 1045.4 1253.2 1044.7 1254.3 1044.5 1255.3 1044.8 1255.7 1044.7 1256.3 1044.7 1256.5 1044.7 1258.4 1044.7 1260.4 1044.7 1262.4 1044.7 1264.2 1044.7 1265.7 1046.2 1265.7 1048 1265.7 1049.9 1264.2 1051.4 1262.4 1051.4 1260.4 1051.4 1258.4 1051.4 1256.4 1051.3Z" class="c"/></g></g><path d="M1317.7 788.4L1326.1 796.8C1326.1 796.8 1327.6 797.2 1330 798.5 1334.7 801.2 1339.3 805.2 1341.2 811.2 1342.9 816.4 1342.6 823 1339.2 831.3 1335.6 840.3 1328.4 851.2 1316.3 864.4 1315.2 865.6 1315.3 867.5 1316.5 868.6 1317.7 869.7 1319.6 869.6 1320.7 868.4 1346.8 840 1350.8 821.3 1347 809.4 1344.5 801.8 1338.9 796.7 1332.9 793.3 1324.4 788.5 1317.7 788.4 1317.7 788.4Z" class="e"/><path d="M1031.8 801.2L1032.7 793.1C1032.7 793.1 1025.1 799.6 1021.3 804.3 1015.8 811.1 1011.3 819.8 1011.1 829.9 1010.8 840.7 1015.4 853.1 1029.5 866.5 1030.7 867.7 1032.6 867.6 1033.8 866.4 1034.9 865.2 1034.9 863.3 1033.7 862.2 1021.2 850.4 1016.9 839.5 1017.1 830.1 1017.2 821.3 1021.3 813.9 1026 808 1027.8 805.8 1031.8 801.2 1031.8 801.2Z" class="e"/><g transform="matrix(-0.631838 0 0 0.631838 1927.7 356.391)"><path d="M1041.1 950L1064.9 965.3C1067.5 966.9 1068.2 970.4 1066.6 972.9 1064.9 975.4 1061.5 976.2 1058.9 974.5L1035.2 959.2C1032.6 957.6 1031.9 954.2 1033.5 951.6 1035.2 949.1 1038.6 948.3 1041.1 950Z" class="c"/><path d="M1014.9 960.1L1059.8 964.2C1062.5 964.5 1064.6 976.8 1064.6 991.8 1064.5 1006.8 1062.3 1018.8 1059.6 1018.5L1014.7 1014.4C1012 1014.1 1009.9 1001.7 1009.9 986.8 1010 971.8 1012.2 959.8 1014.9 960.1Z" class="c"/><path d="M1024.1 1025.3C1038.6 1015.9 1047.5 1010.2 1052.2 1007.2 1055.1 1005.3 1059.1 1005.9 1061.2 1008.5 1063.3 1011.1 1062.6 1014.7 1059.7 1016.5 1055 1019.6 1046.1 1025.3 1031.7 1034.7 1028.8 1036.5 1024.7 1036 1022.6 1033.4 1020.6 1030.8 1021.2 1027.2 1024.1 1025.3Z" class="c"/></g><g transform="matrix(0.631838 0 0 0.631838 420.662 358.988)"><path d="M1035.2 959.2L1058.9 974.5C1061.5 976.2 1064.9 975.4 1066.6 972.9 1068.2 970.4 1067.5 966.9 1064.9 965.3L1041.1 950C1038.6 948.3 1035.2 949.1 1033.5 951.6 1031.9 954.2 1032.6 957.6 1035.2 959.2Z" class="c"/><path d="M1014.7 1014.4L1059.6 1018.5C1062.3 1018.8 1064.5 1006.8 1064.6 991.8 1064.6 976.8 1062.5 964.5 1059.8 964.2L1014.9 960.1C1012.2 959.8 1010 971.8 1009.9 986.8 1009.9 1001.7 1012 1014.1 1014.7 1014.4Z" class="c"/><path d="M1031.7 1034.7C1046.1 1025.3 1055 1019.6 1059.7 1016.5 1062.6 1014.7 1063.3 1011.1 1061.2 1008.5 1059.1 1005.9 1055.1 1005.3 1052.2 1007.2 1047.5 1010.2 1038.6 1015.9 1024.1 1025.3 1021.2 1027.2 1020.6 1030.8 1022.6 1033.4 1024.7 1036 1028.8 1036.5 1031.7 1034.7Z" class="c"/></g></svg>